<svg id="Layer_1" data-name="Layer 1" xmlns="http://www.w3.org/2000/svg" viewBox="0 0 512 512"><title>lab-flask-flat</title><circle cx="256" cy="256" r="256" fill="#f3eeda"/><path d="M292.44,252s-5.88-3.12-5.88-15.15V175.44c3.85-2.23,5.75-5,6.27-8.07h1.43V140.43h-1.43a5.46,5.46,0,0,0,.13-1c0-8-16.8-14.43-37.53-14.43s-37.52,6.46-37.52,14.43a5.46,5.46,0,0,0,.13,1h-.76v26.94H218c.55,3.21,3.09,6.12,10.79,8.43v61.1c0,12-8.16,15.15-8.16,15.15-13.95,8.18-94.76,89.49-59.64,114,31.48,22,84.33,21.18,95,20.77,10.55.41,63.35,1.21,94.83-20.77C386,341.52,306.39,260.22,292.44,252Zm-2,115s39.93-7.7,41.85-28.86-36.09-61.11-36.09-61.11,49.56,38,49.07,64S290.41,367,290.41,367Z" fill="#98d3cb"/></svg>