<svg id="Layer_1" data-name="Layer 1" xmlns="http://www.w3.org/2000/svg" viewBox="0 0 512 512"><title>world-globe-flat</title><circle cx="256" cy="256" r="256" fill="#f3eeda"/><path d="M254.43,133.53A122.47,122.47,0,1,0,376.91,256,122.48,122.48,0,0,0,254.43,133.53Zm0,239.3A116.82,116.82,0,1,1,371.26,256,116.83,116.83,0,0,1,254.43,372.82Z" fill="#98d3cb"/><path d="M237,139s-41.26,5.34-69.33,37.62c0,0,21.6-22.46,34.8-22.46l3,1.27a6.11,6.11,0,0,1-.84,1.54c-.43.43-2.12,2.67-2.12,3.24s.15,2.38.15,2.38l-1,1.4a3.7,3.7,0,0,0-1.27.84c-.28.42-.84.57-.84,1.55a12.89,12.89,0,0,0,.28,2.25L200,171l-.71,1.4-1.82,1.12a6.67,6.67,0,0,1-2.94,0c-.85-.42-1.12-2.1-1.12-2.1l2.38-1.54s.28-.42-.42-.84-.55-1.83-1.83-1.54a10.73,10.73,0,0,0-3.22,2l-2.11,1.4s-1,2.53-.57,2.53a5.37,5.37,0,0,1,1.55.7,4.38,4.38,0,0,1,.28,1.4,7.12,7.12,0,0,1-.7,2.1s-.43.71-1.83.43a34.09,34.09,0,0,1-3.52-.84,4.07,4.07,0,0,0-2.52-.42c-.84.28-1.13.56-1.27,1s-3.08,2.1-3.08,2.1-1,.43-1,1a15.19,15.19,0,0,1-.85,2.66,6.2,6.2,0,0,1-2.81,1.41c-1.83.41-2.24,1-2.24,1l-1,2.1a12.67,12.67,0,0,0-2.39,2.25,19.72,19.72,0,0,1-4.35,3.51,5.57,5.57,0,0,0-2,2.52c-.41,1.13-.28,2.81-.69,3.36a8.79,8.79,0,0,0-1.13,3.23,5.23,5.23,0,0,1-1.4,2.95,13.36,13.36,0,0,1-1.83,1.4,25.22,25.22,0,0,0-3.8,1.54,3.65,3.65,0,0,0-1.26,2.4c0,.42,1.26,1.4,1.69,1.4a9.76,9.76,0,0,1,1.68.42s.13,2.25.13,2.67-.84,2.53,0,2.53a12,12,0,0,1,2.11.29l2.25.56,2,1.26,1.12.85a7.07,7.07,0,0,1-.56,1.69c-.28.42-.84,1.4-1.26,1.26s-.29-.14-.7-1.12-.28-1.4-1.27-1.68-2,.71-2.39.42-1.12-.28-1.82-1-.85.56-.71-.7.71-1.83.43-2.39-1.12-1.83-1.68-1.83.28,1.13-.56,0-1.4-1.53-1.82-1.39-1,.28-1-.43.41-2.11.41-2.8.41-1.83.41-2.4.57-3.92.57-3.92-3.74,7.34-5.05,13c0,0,1.5-.19,1.5.75a14.05,14.05,0,0,1,.18,2.79c-.18.95-.18.76-.18,3.75s.75,3.74.37,4.67a17.88,17.88,0,0,0-1.12,3.37,10.51,10.51,0,0,0,1.12,4.49,5.8,5.8,0,0,0,.94,1.31c.56.56-.94,2.81.56.56s2.05-3.18,2.05-3.18l.94-1.12s0-1.49,1.88-1.13,2.05,0,2.61.75-.75,2.62.2,2.81,3.73-1.12,4.5-.93a2.3,2.3,0,0,1,2,1.68c.38,1.31.94,3.18,1.69,3.55s.56,2.05.93,3.18,3,1.87,3.56,1.87a16,16,0,0,1,3.94.75c.74.37,0,1.69,1.49,2.06s1.88,3.36,1.88,3.36.56,2.63.18,3.38-.18,2.06.75,2.25,3.38.57,3.38.57-1.32,1.86.75,2.61a37.19,37.19,0,0,1,4.68,1.87c.55.37-1.31,2.06,1.12,1.87s4.68-.57,5.8.37.19,2.25,3.18,3.94,3.92,2.24,4.68,2.61,2.25.18,1.87,2.44-.75,3.74-1.87,4.67-2.62,3.93-3.37,4.87a4,4,0,0,0-.75,4.12c.75,1.5,1.68,3.18,1.68,4.12s.37,3.74-.19,4.87-1.68,3.18-1.68,3.18,2.06,1.69.56,3.18a17.56,17.56,0,0,1-4.86,3.56,15.48,15.48,0,0,0-3.36,2.43s.18,4.69,0,5.61-4.5,8.42-3,10.11a5,5,0,0,1,1.3,4.69c-.37,1.11-.93.92-1.3,1.86s-3.19.19-1.5,2.81,2.62,3.19,3.37,4.68.56,2.06,1.68,3.55,1.68,3,3,4.12,2.81,1.87,2.81,3.17,2.8,4.31-.57,2.06-.38-.18-4.68-3.73-5.41-2.06-7.3-4.3.94,5.62-2.62-3.74-4.49-8.24-5.42-10.3-.19.19-2.81-4.49-.37-1.68-2.62-4.68-2.44,1.12-3.55-4.31-1.31-1.86-2.81-8,1.13-6.36-2.25-9.36-3.17-1.49-4.3-3.55.37-.19-2.63-5.42-7.1-7.3-6.92-16.28.18-10.48.18-10.48-4.49-3.56-3-8.79,2.06-3.56,1.49-5.24-1.12-1.31-2.61-3.37-1.69-1.87-2.06-3.17-.94-4.12-.94-4.12l-1.12.93s-12,118.27,105.91,135.68c0,0-27.22-5.89-29.48-11.23,0,0-.55-5.05.57-5.05s2.81.84,4.49-.56,3.65-3.09,3.65-3.09l.27,2.25s-1.67.28,3.65-.56,5.34-.28,7.31-1.12,4.21-5.05,5.33-2.53-1.4,1.4,1.12,2.53,7.31-.57,7.31-.57,8.13.57,9-.28.83-2.24,2.24-2,2.24,2.52,2.24,2.52l-4.48,2.54-4.22,3.09s-2,.55-.28,1.4,2.53.56,4.5.83,6.73,3.94,7.86,1.69a36.29,36.29,0,0,1,2.24-3.92c.84-1.41.57-3.09,2.54-3.09a16.35,16.35,0,0,1,3.92.57L271.26,363s3.37-.29,4.78-.29,1.69,2.25,3.65.29,2.25-2,4.21-2.25,4.77-1.13,5.61-.85a14.22,14.22,0,0,0,3.37.56c.84,0,5.05,3.09,5.9,2.54s5.9-.29,5.9-.29-13.76,12.64-42.94,13.2c0,0,65.3,3,102-60.63S374.94,170,291.1,141.58c0,0,62.7,23.2,79.26,83.28L369.8,226c-1.69-1.69-1.69-.84-3.08-3.65s-.28-2.25-1.4-4.21-.85-.56-2.25-2.53-1.69-1.68-2.82-2.81-2.24-4.77-3.08-5.9-3.37-1.4-4.5-1.68-.56-1.69-1.12-.28,1.68,3.65,1.68,3.65v4.49s1.68,4.21,1.68,5.34a18,18,0,0,1-1.4,4.2s-.55,3.38-1.68,3.94-7.58,1.68-7.58,1.68a31.34,31.34,0,0,1-3.09-4.21c-1.12-2-4.76-2.52-5.32-3.37s.83-2.52-.86-4.77,0-1.68-2.23-3.65l-2.25-2s-5.05-1.69-3.37,1.11-.27,5.9,1.13,6.18,2.24-.84,3.37,1.69,1.4,3.65,2.24,4.49,1.12,4.49,2.24,4.77,4.22,0,3.94,1.4-2,3.36,0,3.93,2.24,1.4,3.37,1.12.55.28,2.53-.56a12.22,12.22,0,0,1,4.21-.84s2.51,2,2.51,2.8-.84,5.62-.84,5.62l-2.53,4.77s.28,8.42-1.12,8.42-3.09,3.65-3.93,4.21-1.12,6.18-1.12,6.18l-2.54,3.09a34.58,34.58,0,0,0,0,5.33c.28,1.12.85,5.62.28,7.86s-3.64,4.49-3.64,4.49,4.21,3.93,2,4.49-4.49,3.93-5.05,4.77-.28,2.53-1.68,2.81-3.93.56-3.93,1.41V304L324,310.48l-5.33,4.5s.56,3.08-1.13,3.36-7.3,2.54-8.14,3.38-5.05,2.8-6.45,2.8.84,3.94-1.4,0-.56-1.4-2.53-5.89-2-1.12-2-4.49.28-.27,0-3.36.85-.84-.84-4.49-1.4-2.53-3.64-4.78-3.93,0-2.52-3.64.56,0,1.4-3.64-.28-4.22,2-5.9,4.21-2,3.91-4.21a16.46,16.46,0,0,0-.82-4.48c-.58-1.41-2.81-3.65-3.09-4.5s-.29-.27-2-2.81-2.81-3.93-2.81-3.93-.56-5.89-.56-8.14-.85,1.4,0-2.25,1.12-5.89,1.12-5.89-4.21-2.81-5.89-2.54-1.4,2.81-3.93.85-2-3.37-2.81-3.93a3.41,3.41,0,0,0-3.93.28c-1.41,1.12-4.49,1.12-7,2.24s-3.36.84-6.73.84-7.3,1.12-9.83-.28-2.81.57-3.92-2.24,0-2.53-2.54-3.93-3.08-.29-3.36-2.81,1.12-2-.85-4.21a23.7,23.7,0,0,0-2-2.25c-3.08-3.37-4.21-.56-3.08-3.37s2-1.12,2-4.49,5.05,1.4,2-5.33-3.64-5.34-.84-10.39,6.45-6.73,7-7.86,1.68-3.92,2.8-4.77.28-1.69,2.81-1.4a9.09,9.09,0,0,0,7-2.53c1.68-1.68,3.94-4.21,5.06-4.49s.57.28,3.09-.29,3.07-.83,4.78-.83-1.7.56,3.07-.28,3.65-.84,4.79-.84.54.28,2.51.56,1.69-3.93,2,.28-1.67,6.18,1.69,6.47,0,.28,3.37.28,2.52.56,4.2,1.4,2.52,2,5.05,2-1.12,3.65,2.53,0-2.81-4.21,3.65-3.64,7.3,2,8.42,1.39,1.4.57,4.22-.84,3.08-1.4,4.21-.84,1.12,3.09,2.25.56,3.36-1.69,0-3.37-4.5.27-5.05-2,2.8-1.69-.57-2.25a20.49,20.49,0,0,1-5.33-1.4c-2.53-.84-5.06,2.53-5.89,0s-5.62,1.69-.84-2.52,2.8-5.9,5.89-5.05,2.25,3.65,4.2,2,5.62-2.81,2-5.33-1.12-1.41-4.78-3.09-7,6.46-8.69,5.34-2.53-2-3.65-1.4-1.13,3.64-1.41,5.89,2,2.8-1.68,1.12,3.93-.83-4.21-3.93-10.95-2.25-12.07-1.12-2.81.84-3.65,1.68,2.54,2.81-.84.85-6.74,1.11-6.74,1.11a2.43,2.43,0,0,0-2.52.58c-1.41,1.11-4.22,2-5.89,1.4s-5.34.56-2.25-3.37.84-1.68,5.61-3.65,11.8-2.25,5.62-3.65,3.37-1.4-4.78-5.34-8.42,1.41-8.13-3.92-.57-5.61-2.25-5.34-6.74,1.4-8.71,1.69.28,2-3.36-.29-5.06,1.13-3.66-2.24,1.69-3.93,3.93-5.89,1.68-9.26,7.31-6.46,3.36,2,7.86,2.25,6.45-.56,6.45-1.4-5.06-3.37-5.06-3.37-1.68.56-1.12-.28l1.7-2.53-1.7-1.4S241,138.12,237,139Z" fill="#98d3cb"/></svg>