<svg id="Layer_1" enable-background="new 0 0 512 512" height="512" viewBox="0 0 512 512" width="512" xmlns="http://www.w3.org/2000/svg" xmlns:xlink="http://www.w3.org/1999/xlink"><linearGradient id="lg1"><stop offset="0" stop-color="#21d1f7"/><stop offset="1" stop-color="#2196f3"/></linearGradient><linearGradient id="SVGID_1_" gradientTransform="matrix(1 0 0 -1 0 513.77)" gradientUnits="userSpaceOnUse" x1="-110.462" x2="422.648" xlink:href="#lg1" y1="385.612" y2="-84.178"/><linearGradient id="SVGID_00000102519701935729351880000002671429994655317659_" gradientTransform="matrix(1 0 0 -1 0 513.77)" gradientUnits="userSpaceOnUse" x1="24.404" x2="557.514" xlink:href="#lg1" y1="538.66" y2="68.87"/><linearGradient id="SVGID_00000100382150096046827630000002831395078722370495_" gradientTransform="matrix(1 0 0 -1 0 513.77)" gradientUnits="userSpaceOnUse" x1="87.809" x2="620.909" xlink:href="#lg1" y1="610.603" y2="140.813"/><g id="Layer_2_00000168824430282661199400000002710966031979787953_"><g id="add_friend"><path d="m142.4 249h95.5c78.7 0 142.4 63.8 142.4 142.4v40.6c0 33.2-26.9 60.2-60.2 60.2h-260c-33.2-.1-60.1-27-60.1-60.2v-40.6c0-78.7 63.8-142.4 142.4-142.4z" fill="url(#SVGID_1_)"/><circle cx="190.2" cy="121.2" fill="url(#SVGID_00000102519701935729351880000002671429994655317659_)" r="101.3"/><path d="m483.2 168.4h-32.8v-32.8c0-15.9-12.9-28.8-28.8-28.8-15.9 0-28.8 12.9-28.8 28.8v32.8h-32.8c-15.9 0-28.8 12.9-28.8 28.8 0 15.9 12.9 28.8 28.8 28.8h32.8v32.8c0 15.9 12.9 28.8 28.8 28.8 15.9 0 28.8-12.9 28.8-28.8v-32.8h32.8c15.9 0 28.8-12.9 28.8-28.8 0-15.9-12.9-28.8-28.8-28.8z" fill="url(#SVGID_00000100382150096046827630000002831395078722370495_)"/></g></g></svg>