<svg id="Capa_1" enable-background="new 0 0 511.939 511.939" height="512" viewBox="0 0 511.939 511.939" width="512" xmlns="http://www.w3.org/2000/svg"><g><path d="m376.073 456.8c0 15.235-6.17 29.017-16.151 38.988-9.971 9.981-23.763 16.151-38.988 16.151h-137.987c-30.387 0-55.015-24.557-55.139-54.912v-.227c0-15.224 6.17-29.006 16.151-38.988 9.971-9.971 23.764-16.141 38.988-16.141h137.987c30.459 0 55.139 24.68 55.139 55.129z" fill="#f8f6f9"/><path d="m255.978 401.671v55.355h-128.17v-.226c0-15.224 6.17-29.006 16.151-38.988 9.971-9.971 23.764-16.141 38.988-16.141z" fill="#dddaec"/><path d="m434.291 178.317c0-98.481-79.835-178.317-178.317-178.317-98.11 0-177.404 78.526-178.31 176.632-.625 67.688 36.469 126.765 91.539 157.496 30.874 17.229 50.075 49.744 50.075 85.099v1.106c0 20.266 16.429 36.696 36.696 36.696 20.266 0 36.695-16.429 36.695-36.696v-1.102c0-35.527 19.513-67.941 50.49-85.336 54.385-30.539 91.132-88.765 91.132-155.578z" fill="#dd636e"/><path d="m271.533 453.569c-4.717 2.225-10.002 3.461-15.564 3.461-20.261 0-36.691-16.429-36.691-36.691v-1.113c0-35.352-19.21-67.871-50.081-85.093-55.067-30.737-92.159-89.811-91.541-157.496.907-98.113 80.2-176.634 178.313-176.634 5.222 0 10.383.227 15.492.669-90.769 7.829-161.812 83.126-162.667 175.965-.618 67.685 36.475 126.759 91.541 157.496 30.871 17.223 50.071 49.741 50.071 85.093v1.113c0 14.699 8.643 27.379 21.127 33.23z" fill="#da4a54"/><g><circle cx="255.974" cy="178.317" fill="#f8f6f9" r="124.106"/><path d="m278.929 300.307c-7.437 1.391-15.111 2.122-22.95 2.122-68.54 0-124.112-55.561-124.112-124.112 0-68.54 55.572-124.101 124.112-124.101 7.839 0 15.513.731 22.95 2.122-57.58 10.764-101.162 61.278-101.162 121.979 0 60.712 43.582 111.226 101.162 121.99z" fill="#dddaec"/></g><g><path d="m292.241 178.32 30.989-30.989c5.229-5.229 5.229-13.707 0-18.936l-17.332-17.332c-5.229-5.229-13.707-5.229-18.935 0l-30.989 30.99-30.989-30.99c-5.229-5.229-13.707-5.229-18.936 0l-17.332 17.332c-5.229 5.229-5.229 13.707 0 18.936l30.99 30.989-30.99 30.99c-5.229 5.229-5.229 13.707 0 18.936l17.332 17.332c5.229 5.229 13.707 5.229 18.936 0l30.989-30.989 30.989 30.989c5.229 5.229 13.707 5.229 18.935 0l17.332-17.332c5.229-5.229 5.229-13.707 0-18.936z" fill="#dd636e"/></g></g></svg>