<svg id="Capa_1" enable-background="new 0 0 512.033 512.033" height="512" viewBox="0 0 512.033 512.033" width="512" xmlns="http://www.w3.org/2000/svg" xmlns:xlink="http://www.w3.org/1999/xlink"><linearGradient id="SVGID_1_" gradientUnits="userSpaceOnUse" x1="361.026" x2="361.026" y1="512.033" y2="210.024"><stop offset="0" stop-color="#5558ff"/><stop offset="1" stop-color="#00c0ff"/></linearGradient><linearGradient id="SVGID_00000016054682741646663750000014093838660617581451_" gradientUnits="userSpaceOnUse" x1="180.024" x2="180.024" y1="360.045" y2="0"><stop offset="0" stop-color="#addcff"/><stop offset=".5028" stop-color="#eaf6ff"/><stop offset="1" stop-color="#eaf6ff"/></linearGradient><g id="Select_9_"><g><g><path d="m501.77 302.81-272-92c-5.405-1.831-11.323-.396-15.352 3.618-4.014 4.014-5.42 9.961-3.618 15.352l92 272c2.036 6.123 7.764 10.254 14.224 10.254s12.188-4.131 14.224-10.254l42.642-127.881 127.881-42.642c6.123-2.036 10.254-7.764 10.254-14.224s-4.132-12.187-10.255-14.223z" fill="url(#SVGID_1_)"/></g></g><g><g><path d="m89.892 60.121c6.973-5.259 14.429-9.902 22.134-13.813 7.383-3.75 10.327-12.773 6.577-20.171-3.75-7.383-12.773-10.342-20.171-6.577-9.258 4.702-18.208 10.283-26.587 16.597-6.621 4.98-7.939 14.385-2.959 21.006 4.944 6.566 14.329 7.975 21.006 2.958zm-43.799 187.529c-3.779-7.383-12.773-10.342-20.171-6.577-7.383 3.75-10.327 12.773-6.577 20.171 4.717 9.302 10.283 18.237 16.509 26.572 4.938 6.608 14.345 8.017 20.991 3.032 6.636-4.951 7.998-14.355 3.032-20.991-5.2-6.958-9.843-14.428-13.784-22.207zm-15.029-49.746c-.688-5.801-1.055-11.704-1.055-17.651 0-2.798.073-5.61.234-8.423.469-8.276-5.845-15.352-14.121-15.82-8.027-.352-15.366 5.845-15.82 14.121-.19 3.398-.293 6.768-.293 10.122 0 7.148.425 14.224 1.26 21.196.99 8.315 8.56 14.114 16.67 13.125 8.232-.981 14.106-8.452 13.125-16.67zm89.692 119.971c-7.939-3.398-15.659-7.559-22.983-12.349-6.899-4.541-16.201-2.593-20.757 4.321-4.541 6.929-2.607 16.216 4.321 20.757 8.76 5.757 18.047 10.752 27.583 14.839 7.448 3.216 16.392-.128 19.702-7.866 3.267-7.617-.263-16.435-7.866-19.702zm-98.408-188.833c7.521 3.215 16.406-.221 19.688-7.91 3.398-7.969 7.529-15.718 12.29-23.027 4.526-6.958 2.563-16.245-4.38-20.757-6.973-4.556-16.245-2.534-20.757 4.38-5.713 8.774-10.664 18.062-14.751 27.627-3.252 7.617.293 16.435 7.91 19.687zm317.901-31.069c-4.775-9.272-10.371-18.193-16.655-26.514-5.024-6.606-14.429-7.954-21.021-2.915-6.606 4.995-7.91 14.414-2.915 21.021 5.244 6.929 9.932 14.37 13.901 22.119 3.831 7.43 12.901 10.236 20.2 6.489 7.368-3.794 10.269-12.832 6.49-20.2zm18.413 59.648c-1.025-8.218-8.496-13.975-16.743-13.022-8.218 1.025-14.048 8.525-13.022 16.743.762 6.064 1.143 12.231 1.143 18.472 0 2.505-.073 5.039-.205 7.588-.425 8.276 5.933 15.322 14.209 15.762 8.23.437 15.322-5.909 15.762-14.209.161-3.076.234-6.108.234-9.141-.001-7.501-.47-14.898-1.378-22.193zm-161.148 171.431c-8.54.981-17.212 1.26-26.118.732-8.804-.498-15.381 5.815-15.85 14.092-.483 8.276 5.83 15.366 14.092 15.85 10.178.586 20.276.405 31.304-.879 8.232-.938 14.136-8.379 13.184-16.611-.938-8.218-8.174-14.122-16.612-13.184zm-35.786-297.935c8.555-1.025 17.314-1.289 26.074-.894 8.335.981 15.352-5.874 15.791-14.15.454-8.276-5.874-15.352-14.15-15.791-10.62-.615-21.094-.205-31.318 1.04-8.232.996-14.092 8.481-13.096 16.699 1.003 8.283 8.527 14.069 16.699 13.096zm116.206-2.168c-8.73-5.684-18.047-10.635-27.7-14.707-7.632-3.252-16.436.366-19.658 7.969-3.223 7.632.337 16.435 7.969 19.658 8.027 3.398 15.776 7.5 23.013 12.217 6.888 4.5 16.217 2.593 20.757-4.38 4.525-6.958 2.562-16.245-4.381-20.757z" fill="url(#SVGID_00000016054682741646663750000014093838660617581451_)"/></g></g></g></svg>